<svg version="1.1" id="Layer_1" xmlns="http://www.w3.org/2000/svg" xmlns:xlink="http://www.w3.org/1999/xlink" x="0px" y="0px"
	 width="100%" viewBox="0 0 542 541" enable-background="new 0 0 542 541" xml:space="preserve">
<path fill="#010101" opacity="1.000000" stroke="none" 
	d="
M234.000000,1.000004 
	C258.354218,1.000000 282.708466,1.000000 307.535156,1.325715 
	C308.326477,2.108496 308.645325,2.565562 309.242859,3.211475 
	C316.809875,8.640901 323.981812,14.056899 331.456055,19.017405 
	C333.761505,20.547499 336.889496,21.576658 339.643890,21.583260 
	C399.274994,21.726177 458.906555,21.691593 518.538025,21.691246 
	C520.460144,21.691235 522.382263,21.691244 524.648804,21.691244 
	C524.648804,24.350201 524.648804,26.324217 524.648804,28.298233 
	C524.648071,187.204437 524.824829,346.111176 524.339172,505.015900 
	C524.296326,519.047791 526.287476,530.332153 538.757202,538.038818 
	C539.722839,538.635559 540.513672,539.581909 541.217896,540.495056 
	C541.433411,540.774475 541.088318,541.486206 541.000000,542.000000 
	C527.979126,542.000000 514.958191,542.000000 501.529358,541.706787 
	C500.854156,541.133972 500.586914,540.854370 500.198853,540.147522 
	C500.051941,537.887817 500.003113,536.055481 500.003052,534.223083 
	C499.999390,426.058929 499.999817,317.894806 499.999817,209.730652 
	C499.999817,207.944092 499.999786,206.157547 499.999786,204.212555 
	C485.845673,204.212555 472.107574,204.212555 457.848511,204.212555 
	C457.848511,301.931091 457.848511,399.438690 457.848511,496.946259 
	C457.375092,497.245361 456.901642,497.544495 456.428223,497.843597 
	C339.366760,380.663239 222.305313,263.482849 105.186150,146.244705 
	C105.186150,244.692230 105.186150,343.036560 105.186150,441.315216 
	C122.017075,441.315216 138.426666,441.315216 155.297546,441.315216 
	C155.297546,384.410431 155.297546,327.854095 155.297546,270.260651 
	C157.220947,272.040985 158.418243,273.077087 159.535278,274.193481 
	C237.924515,352.539429 316.385925,430.813416 394.623352,509.310669 
	C409.988373,524.726685 427.419373,535.819519 448.944580,540.058472 
	C449.726807,540.212585 450.319153,541.330994 451.000000,542.000000 
	C427.312439,542.000000 403.624878,542.000000 379.300812,541.711609 
	C374.415527,536.976990 369.956635,532.708435 365.993652,528.020630 
	C363.455597,525.018311 360.657318,524.242188 356.897888,524.245056 
	C247.111404,524.329651 137.324844,524.313416 27.538290,524.313354 
	C25.603775,524.313293 23.669260,524.313354 21.270618,524.313354 
	C21.270618,378.008789 21.270618,232.321518 21.270618,86.000000 
	C14.203900,86.000000 7.601950,86.000000 1.000000,86.000000 
	C1.000000,75.979103 1.000000,65.958214 1.460610,55.373638 
	C3.751479,54.856174 5.581733,54.942619 7.411995,54.942795 
	C73.572136,54.949162 139.732285,54.943150 205.892426,54.959682 
	C209.219742,54.960514 212.553452,55.047054 215.873367,55.261303 
	C294.627747,60.343578 341.065857,142.701050 304.089478,212.280975 
	C298.777191,222.277283 291.087982,231.010452 284.148987,240.822845 
	C295.349335,251.447021 307.334137,262.815308 319.407928,274.268005 
	C322.129364,271.517700 324.463531,269.379028 326.547028,267.019073 
	C346.736145,244.151230 360.197479,217.914932 365.056885,187.688080 
	C373.441498,135.533646 359.896606,89.611031 324.146332,50.729881 
	C300.533234,25.048834 271.057098,9.389239 236.740601,2.885051 
	C235.743774,2.696113 234.909866,1.647685 234.000000,1.000004 
z"/>
<path fill="#FEFEFE" opacity="1.000000" stroke="none" 
	d="
M451.468689,542.000000 
	C450.319153,541.330994 449.726807,540.212585 448.944580,540.058472 
	C427.419373,535.819519 409.988373,524.726685 394.623352,509.310669 
	C316.385925,430.813416 237.924515,352.539429 159.535278,274.193481 
	C158.418243,273.077087 157.220947,272.040985 155.297546,270.260651 
	C155.297546,327.854095 155.297546,384.410431 155.297546,441.315216 
	C138.426666,441.315216 122.017075,441.315216 105.186150,441.315216 
	C105.186150,343.036560 105.186150,244.692230 105.186150,146.244705 
	C222.305313,263.482849 339.366760,380.663239 456.428223,497.843597 
	C456.901642,497.544495 457.375092,497.245361 457.848511,496.946259 
	C457.848511,399.438690 457.848511,301.931091 457.848511,204.212555 
	C472.107574,204.212555 485.845673,204.212555 499.999786,204.212555 
	C499.999786,206.157547 499.999817,207.944092 499.999817,209.730652 
	C499.999817,317.894806 499.999390,426.058929 500.003052,534.223083 
	C500.003113,536.055481 500.051941,537.887817 500.045746,540.487549 
	C500.008942,541.503357 500.004456,541.751709 500.000000,542.000000 
	C483.979095,542.000000 467.958221,542.000000 451.468689,542.000000 
z"/>
<path fill="#FEFDFD" opacity="1.000000" stroke="none" 
	d="
M233.531342,1.000004 
	C234.909866,1.647685 235.743774,2.696113 236.740601,2.885051 
	C271.057098,9.389239 300.533234,25.048834 324.146332,50.729881 
	C359.896606,89.611031 373.441498,135.533646 365.056885,187.688080 
	C360.197479,217.914932 346.736145,244.151230 326.547028,267.019073 
	C324.463531,269.379028 322.129364,271.517700 319.407928,274.268005 
	C307.334137,262.815308 295.349335,251.447021 284.148987,240.822845 
	C291.087982,231.010452 298.777191,222.277283 304.089478,212.280975 
	C341.065857,142.701050 294.627747,60.343578 215.873367,55.261303 
	C212.553452,55.047054 209.219742,54.960514 205.892426,54.959682 
	C139.732285,54.943150 73.572136,54.949162 7.411995,54.942795 
	C5.581733,54.942619 3.751479,54.856174 1.460610,54.904980 
	C1.000000,37.027470 1.000000,19.054943 1.000000,1.000000 
	C78.354210,1.000000 155.708450,1.000000 233.531342,1.000004 
z"/>
<path fill="#FFFFFF" opacity="1.000000" stroke="none" 
	d="
M1.000000,86.468658 
	C7.601950,86.000000 14.203900,86.000000 21.270618,86.000000 
	C21.270618,232.321518 21.270618,378.008789 21.270618,524.313354 
	C23.669260,524.313354 25.603775,524.313293 27.538290,524.313354 
	C137.324844,524.313416 247.111404,524.329651 356.897888,524.245056 
	C360.657318,524.242188 363.455597,525.018311 365.993652,528.020630 
	C369.956635,532.708435 374.415527,536.976990 378.832153,541.711609 
	C253.066116,542.000000 127.132225,542.000000 1.000000,542.000000 
	C1.000000,390.312500 1.000000,238.624908 1.000000,86.468658 
z"/>
<path fill="#FDFDFD" opacity="1.000000" stroke="none" 
	d="
M541.500000,542.000000 
	C541.088318,541.486206 541.433411,540.774475 541.217896,540.495056 
	C540.513672,539.581909 539.722839,538.635559 538.757202,538.038818 
	C526.287476,530.332153 524.296326,519.047791 524.339172,505.015900 
	C524.824829,346.111176 524.648071,187.204437 524.648804,28.298233 
	C524.648804,26.324217 524.648804,24.350201 524.648804,21.691244 
	C522.382263,21.691244 520.460144,21.691235 518.538025,21.691246 
	C458.906555,21.691593 399.274994,21.726177 339.643890,21.583260 
	C336.889496,21.576658 333.761505,20.547499 331.456055,19.017405 
	C323.981812,14.056899 316.809875,8.640901 309.341064,2.828115 
	C309.107056,1.837272 309.053528,1.418635 309.000000,0.999999 
	C387.000000,1.000000 465.000000,1.000000 543.000000,1.000000 
	C543.000000,179.833328 543.002502,358.666656 542.958679,537.500000 
	C542.958313,539.000061 542.333313,540.500000 541.500000,542.000000 
z"/>
<path fill="#605E5F" opacity="1.000000" stroke="none" 
	d="
M308.750000,0.999999 
	C309.053528,1.418635 309.107056,1.837272 309.062378,2.639268 
	C308.645325,2.565562 308.326477,2.108496 308.003784,1.325715 
	C308.000000,1.000000 308.500000,1.000000 308.750000,0.999999 
z"/>
<path fill="#CCCCCC" opacity="1.000000" stroke="none" 
	d="
M500.250000,542.000000 
	C500.004456,541.751709 500.008942,541.503357 500.166565,540.914917 
	C500.586914,540.854370 500.854156,541.133972 501.060699,541.706787 
	C501.000000,542.000000 500.500000,542.000000 500.250000,542.000000 
z"/>
</svg>